<svg version="1.1" viewBox="0 0 16 16" xmlns="http://www.w3.org/2000/svg" xmlns:xlink="http://www.w3.org/1999/xlink"><path d="M2.23962,1.55475c0.590393,-0.343628 1.26764,-0.554749 2,-0.554749c0.0820923,0 0.158752,0.0192871 0.239624,0.0241699c-0.550049,-0.622864 -1.34521,-1.02417 -2.23962,-1.02417c-0.894409,0 -1.68958,0.401306 -2.23962,1.02417c0.0808716,-0.0048828 0.157532,-0.0241699 0.239624,-0.0241699c0.732361,0 1.40961,0.211121 2,0.554749Z" transform="translate(5.76038, 0)"></path><path d="M3,3c0,-1.08008 0.432495,-2.05621 1.12823,-2.77588c-0.348877,-0.142273 -0.728821,-0.224121 -1.12823,-0.224121c-1.6543,0 -3,1.3457 -3,3h3Z" transform="translate(3, 2)"></path><path d="M0,3h6c0,-1.6543 -1.3457,-3 -3,-3c-1.6543,0 -3,1.3457 -3,3Z" transform="translate(7, 2)"></path><path d="M0,0v1c0,2.96722 2.16687,5.43134 5,5.90967v1.09033h-2c-0.552307,0 -1,0.447693 -1,1v1h8v-1c0,-0.552307 -0.447693,-1 -1,-1h-2v-1.09033c2.83313,-0.478333 5,-2.94244 5,-5.90967v-1h-12Z" transform="translate(2, 6)"></path></svg>